<svg width="29" height="30" viewBox="0 0 29 30" fill="none" xmlns="http://www.w3.org/2000/svg">
<g id="solar:bag-outline">
<path id="Vector" fill-rule="evenodd" clip-rule="evenodd" d="M14.4999 3.4375C13.7789 3.4375 13.0873 3.73382 12.5775 4.26126C12.0676 4.78871 11.7812 5.50408 11.7812 6.25V6.575C12.4542 6.5625 13.1925 6.5625 14.0045 6.5625H14.9965C15.8061 6.5625 16.5456 6.5625 17.2199 6.575V6.25C17.2199 5.88055 17.1495 5.51472 17.0128 5.17341C16.8761 4.8321 16.6757 4.522 16.4231 4.26082C16.1706 3.99964 15.8707 3.7925 15.5407 3.65123C15.2107 3.50996 14.8571 3.43734 14.4999 3.4375ZM19.0312 6.66V6.25C19.0312 5.0068 18.5538 3.81451 17.704 2.93544C16.8542 2.05636 15.7017 1.5625 14.4999 1.5625C13.2982 1.5625 12.1456 2.05636 11.2958 2.93544C10.4461 3.81451 9.96867 5.0068 9.96867 6.25V6.66C9.79588 6.675 9.63034 6.6925 9.46842 6.71375C8.248 6.87 7.24267 7.1975 6.38717 7.93125C5.53288 8.665 5.03625 9.6275 4.66288 10.84C4.30038 12.015 4.02729 13.5238 3.68413 15.4225L3.65875 15.56C3.173 18.2388 2.79117 20.35 2.71988 22.0138C2.64738 23.72 2.89388 25.1325 3.82429 26.2913C4.75471 27.4513 6.05125 27.9613 7.68492 28.2025C9.27992 28.4375 11.3546 28.4375 13.99 28.4375H15.011C17.6452 28.4375 19.7211 28.4375 21.3149 28.2025C22.9486 27.9613 24.2463 27.4513 25.1768 26.2913C26.1072 25.1325 26.3513 23.72 26.28 22.0138C26.2099 20.35 25.8268 18.2388 25.3411 15.56L25.3169 15.4225C24.9725 13.5238 24.6983 12.0138 24.3382 10.84C23.9636 9.6275 23.4682 8.665 22.6127 7.93125C21.7584 7.1975 20.7518 6.86875 19.5314 6.71375C19.365 6.69264 19.1982 6.67472 19.0312 6.66ZM9.69075 8.575C8.65763 8.70625 8.03292 8.955 7.54475 9.375C7.05779 9.7925 6.70617 10.3812 6.38959 11.4087C6.06696 12.4587 5.812 13.8562 5.45433 15.83C4.95167 18.6012 4.59521 20.58 4.53117 22.0963C4.46834 23.5837 4.70033 24.4463 5.21871 25.095C5.73829 25.7413 6.51525 26.135 7.94109 26.345C9.39109 26.56 11.3389 26.5625 14.0649 26.5625H14.9349C17.6621 26.5625 19.6075 26.56 21.0588 26.3462C22.4846 26.135 23.2615 25.7413 23.7811 25.095C24.3007 24.4475 24.5315 23.585 24.4699 22.095C24.4046 20.5813 24.0482 18.6012 23.5455 15.83C23.1878 13.855 22.9341 12.46 22.6103 11.4087C22.2937 10.3812 21.9433 9.7925 21.4551 9.37375C20.9669 8.955 20.3434 8.70625 19.3091 8.57375C18.2506 8.43875 16.8767 8.4375 14.9349 8.4375H14.0649C12.1231 8.4375 10.7493 8.43875 9.69075 8.575Z" fill="black"/>
</g>
</svg>
