<svg width="100" height="94" viewBox="0 0 100 94" fill="none" xmlns="http://www.w3.org/2000/svg">
<g id="fluent-mdl2:verified-brand-solid">
<path id="Vector" d="M90.0879 47L96.1426 54.1143C96.7285 54.818 97.1842 55.583 97.5098 56.4092C97.8353 57.2354 97.998 58.1074 97.998 59.0254C97.998 59.9434 97.8516 60.8154 97.5586 61.6416C97.2656 62.4678 96.8424 63.2174 96.2891 63.8906C95.7357 64.5638 95.0684 65.1452 94.2871 65.6348C93.5059 66.1244 92.6595 66.4915 91.748 66.7363L82.4219 69.1689C82.487 70.7295 82.5684 72.3053 82.666 73.8965C82.7637 75.4876 82.8288 77.0788 82.8613 78.6699C82.8613 79.7715 82.6497 80.7965 82.2266 81.7451C81.8034 82.6937 81.2012 83.5199 80.4199 84.2236C79.6387 84.9274 78.7435 85.4935 77.7344 85.9219C76.7253 86.3503 75.6185 86.5645 74.4141 86.5645C73.4049 86.5645 72.4121 86.3962 71.4355 86.0596L62.4023 82.8467L57.0801 90.4199C56.2988 91.5521 55.2897 92.4242 54.0527 93.0361C52.8158 93.6481 51.4648 93.9694 50 94C48.5677 94 47.2331 93.694 45.9961 93.082C44.7591 92.4701 43.7337 91.5827 42.9199 90.4199L37.5977 82.8467L28.5645 86.0596C27.5879 86.3962 26.5951 86.5645 25.5859 86.5645C24.4141 86.5645 23.3236 86.3656 22.3145 85.9678C21.3053 85.57 20.4102 85.0039 19.6289 84.2695C18.8477 83.5352 18.2454 82.6937 17.8223 81.7451C17.3991 80.7965 17.1712 79.7715 17.1387 78.6699C17.1387 77.0788 17.1875 75.4876 17.2852 73.8965C17.3828 72.3053 17.4805 70.7295 17.5781 69.1689L8.25195 66.7363C7.30794 66.4915 6.46159 66.1244 5.71289 65.6348C4.96419 65.1452 4.31315 64.5638 3.75977 63.8906C3.20638 63.2174 2.7832 62.4678 2.49023 61.6416C2.19727 60.8154 2.03451 59.9434 2.00195 59.0254C2.00195 58.138 2.16471 57.2812 2.49023 56.4551C2.81576 55.6289 3.27148 54.8486 3.85742 54.1143L9.91211 47L3.85742 39.8857C2.62044 38.4476 2.00195 36.8105 2.00195 34.9746C2.00195 34.0566 2.14844 33.1846 2.44141 32.3584C2.73438 31.5322 3.15755 30.7826 3.71094 30.1094C4.26432 29.4362 4.91536 28.8548 5.66406 28.3652C6.41276 27.8757 7.27539 27.5085 8.25195 27.2637L17.5781 24.8311C17.513 23.2705 17.4316 21.6947 17.334 20.1035C17.2363 18.5124 17.1712 16.9212 17.1387 15.3301C17.1387 14.2285 17.3503 13.2035 17.7734 12.2549C18.1966 11.3063 18.7988 10.4801 19.5801 9.77637C20.3613 9.07259 21.2565 8.50651 22.2656 8.07812C23.2747 7.64974 24.3815 7.43555 25.5859 7.43555C26.5951 7.43555 27.5879 7.60384 28.5645 7.94043L37.5977 11.1533L42.9199 3.58008C43.7012 2.44792 44.7103 1.57585 45.9473 0.963867C47.1842 0.351888 48.5352 0.030599 50 0C51.4323 0 52.7669 0.30599 54.0039 0.917969C55.2409 1.52995 56.2663 2.41732 57.0801 3.58008L62.4023 11.1533L71.4355 7.94043C72.4121 7.60384 73.4049 7.43555 74.4141 7.43555C75.5859 7.43555 76.6764 7.63444 77.6855 8.03223C78.6947 8.43001 79.5898 8.99609 80.3711 9.73047C81.1523 10.4648 81.7546 11.3063 82.1777 12.2549C82.6009 13.2035 82.8288 14.2285 82.8613 15.3301C82.8613 16.9212 82.8125 18.5124 82.7148 20.1035C82.6172 21.6947 82.5195 23.2705 82.4219 24.8311L91.748 27.2637C92.6595 27.5085 93.5059 27.8757 94.2871 28.3652C95.0684 28.8548 95.7194 29.4362 96.2402 30.1094C96.7611 30.7826 97.1842 31.5322 97.5098 32.3584C97.8353 33.1846 97.998 34.0566 97.998 34.9746C97.998 36.8105 97.3796 38.4476 96.1426 39.8857L90.0879 47ZM43.75 63.9365L71.5332 37.8662L65.9668 32.6338L43.75 53.5635L34.0332 44.3838L28.4668 49.6162L43.75 63.9365Z" fill="url(#paint0_linear_3198_727)"/>
</g>
<defs>
<linearGradient id="paint0_linear_3198_727" x1="50" y1="0" x2="50" y2="94" gradientUnits="userSpaceOnUse">
<stop stop-color="#00FF47"/>
<stop offset="1" stop-color="#00B432"/>
</linearGradient>
</defs>
</svg>
