<svg width="105" height="100" viewBox="0 0 105 100" fill="none" xmlns="http://www.w3.org/2000/svg">
<path d="M51.7471 96.116C77.3384 96.4926 98.375 77.0399 98.7336 52.6672C99.0922 28.2945 78.6371 8.23124 53.0458 7.85468C27.4545 7.47812 6.41795 26.9308 6.05932 51.3035C5.70069 75.6762 26.1558 95.7395 51.7471 96.116Z" fill="#5B30D6"/>
<path d="M9.04118 62.8133L8.97485 67.3218C9.442 68.5214 9.96592 69.7065 10.5389 70.8539L10.6568 62.8371L9.04118 62.8133ZM14.1995 71.3771L14.1198 76.7934C14.7533 77.6723 15.4112 78.5362 16.1019 79.3698L16.2191 71.4068L14.1995 71.3771ZM21.0912 78.5582L21.0053 84.3977C21.779 85.0786 22.5774 85.729 23.4005 86.3567L23.5147 78.5939L21.0912 78.5582ZM29.6235 84.0628L29.5311 90.3408C30.3167 90.7679 31.1188 91.1721 31.9372 91.5613L32.047 84.0984L29.6235 84.0628ZM39.3398 87.6302L39.242 94.2774C40.0386 94.5046 40.8436 94.7089 41.6569 94.8978L41.7633 87.6658L39.3398 87.6302ZM50.7532 88.9832L50.6489 96.069C51.0123 96.082 51.3756 96.1028 51.7472 96.1082C52.1915 96.1148 52.6362 96.0982 53.0725 96.097L53.1767 89.0188L50.7532 88.9832ZM62.2022 87.9127L62.0958 95.1447C62.9143 94.9798 63.7251 94.7916 64.528 94.588L64.6257 87.9484L62.2022 87.9127ZM71.9957 84.5862L71.8858 92.0567C72.7153 91.6919 73.5291 91.296 74.327 90.8845L74.4192 84.6219L71.9957 84.5862ZM80.6627 79.2886L80.5484 87.0591C81.389 86.4525 82.2069 85.8177 83.0004 85.156L83.0862 79.3242L80.6627 79.2886ZM90.1461 72.3254L88.1266 72.2956L88.0094 80.2585C88.7244 79.438 89.4156 78.594 90.0667 77.7263L90.1461 72.3254ZM95.5224 63.8858L93.9067 63.862L93.7885 71.8941C94.3953 70.7411 94.9541 69.5565 95.4566 68.3558L95.5224 63.8858Z" fill="#3A05D2"/>
<path d="M51.8055 92.1453C77.3968 92.5219 98.4334 73.0692 98.792 48.6965C99.1506 24.3238 78.6955 4.26054 53.1042 3.88398C27.5129 3.50741 6.47636 22.9601 6.11773 47.3328C5.7591 71.7055 26.2142 91.7688 51.8055 92.1453Z" fill="#BB9CFF"/>
<path d="M51.8634 88.2139C75.1748 88.5569 94.3373 70.8372 94.664 48.6357C94.9907 26.4343 76.3578 8.15844 53.0464 7.81542C29.7349 7.47241 10.5724 25.1921 10.2457 47.3936C9.91906 69.595 28.5519 87.8709 51.8634 88.2139Z" fill="#844CFE"/>
<path d="M10.1423 48.9319C9.9213 43.6343 10.9616 38.2783 12.9745 33.2752C15.0679 28.2886 18.2301 23.6949 22.1899 19.8132C30.142 12.0348 41.5836 7.62446 53.0475 7.73928C64.5097 7.9695 75.8248 12.707 83.5283 20.7234C87.3804 24.7124 90.3979 29.4048 92.3438 34.443C94.2165 39.511 95.0989 44.8876 94.7141 50.1763L94.5525 50.1739C94.6143 44.8933 93.5936 39.6504 91.5476 34.7391C89.4978 29.8334 86.4653 25.3532 82.6193 21.5488C78.7709 17.7481 74.1757 14.7048 69.0958 12.5926C64.0175 10.4862 58.5523 9.35964 53.0168 9.27819C47.4812 9.19674 41.9853 10.162 36.8472 12.1181C31.7074 14.0799 27.0246 16.9867 23.0661 20.6725C19.1072 24.3601 15.9438 28.7495 13.7535 33.5944C11.5639 38.4433 10.3894 43.6539 10.2958 48.9341L10.1423 48.9319Z" fill="#6400E4"/>
<path d="M53.1041 3.89179C27.5121 3.51521 6.47628 22.9672 6.11764 47.3406C5.75899 71.7141 26.2134 91.7766 51.8054 92.1531C77.3975 92.5297 98.4333 73.0777 98.7919 48.7043C99.1506 24.3309 78.6962 4.26836 53.1041 3.89179ZM51.8633 88.2217C28.5493 87.8786 9.91893 69.6052 10.2457 47.4014C10.5725 25.1899 29.7324 7.47249 53.0464 7.81554C76.3604 8.15859 94.9907 26.432 94.664 48.6358C94.3373 70.8397 75.1773 88.5647 51.8633 88.2217Z" fill="#BB9CFF"/>
<path d="M31.8968 16.877L32.8783 19.9157L36.2406 18.7493L36.2227 19.9649L33.489 21.7947L34.4965 23.6102L34.4785 24.8335L31.8079 22.9242L29.0741 24.754L29.0921 23.5307L30.1526 21.7456L27.482 19.8363L27.4999 18.6207L30.8183 19.8854L31.8968 16.877ZM18.7323 34.0439L19.7218 37.0827L23.0761 35.9162L23.0582 37.1318L20.3325 38.9617L21.3399 40.7849L21.3221 42.0005L18.6433 40.0911L15.9177 41.921L15.9356 40.7054L16.9962 38.9126L14.3175 37.0032L14.3354 35.7876L17.6619 37.0524L18.7323 34.0439ZM18.0378 55.4343L19.0273 58.4731L22.3816 57.3066L22.3637 58.5222L19.638 60.3521L20.6454 62.1753L20.6275 63.3909L17.9488 61.4815L15.2232 63.3114L15.241 62.0958L16.3017 60.303L13.623 58.3936L13.6408 57.178L16.9674 58.4428L18.0378 55.4343ZM31.5694 72.6246L32.559 75.6635L35.9132 74.497L35.8953 75.7126L33.1696 77.5424L34.1772 79.3579L34.1592 80.5812L31.4804 78.6718L28.7548 80.5017L28.7728 79.2784L29.8333 77.4933L27.1546 75.5839L27.1725 74.3683L30.499 75.6331L31.5694 72.6246ZM73.9202 17.4954L72.8497 20.5039L69.5232 19.2391L69.5053 20.4547L72.184 22.364L71.1235 24.1491L71.1055 25.3724L73.8312 23.5426L76.5099 25.452L76.5279 24.2287L75.5204 22.4131L78.246 20.5833L78.2639 19.3677L74.9097 20.5342L73.9202 17.4954ZM86.5739 35.0422L85.4954 38.0506L82.1769 36.7859L82.159 38.0015L84.8297 39.9107L83.7691 41.7035L83.7512 42.9191L86.4849 41.0894L89.1556 42.9986L89.1734 41.783L88.166 39.9598L90.8998 38.1301L90.9177 36.9145L87.5554 38.0809L86.5739 35.0422ZM86.6387 56.4437L85.5602 59.4521L82.2418 58.1874L82.2239 59.403L84.8945 61.3123L83.8339 63.1051L83.816 64.3207L86.5498 62.4909L89.2204 64.4002L89.2383 63.1846L88.2309 61.3614L90.9646 59.5317L90.9825 58.3161L87.6202 59.4824L86.6387 56.4437ZM72.6072 73.2285L71.5287 76.2369L68.2102 74.9722L68.1923 76.1878L70.863 78.097L69.8025 79.8821L69.7845 81.1054L72.5182 79.2757L75.1889 81.1849L75.2069 79.9617L74.1993 78.1461L76.9331 76.3164L76.951 75.1008L73.5887 76.2672L72.6072 73.2285Z" fill="#6637ED"/>
<path d="M72.6252 72.0058L73.6066 75.0445L76.9511 75.0937L74.2173 76.9235L75.2068 79.9623L72.5362 78.053L69.8025 79.8828L70.881 76.8744L68.2103 74.9651L71.5467 75.0142L72.6252 72.0058ZM86.6566 55.2288L87.6381 58.2675L90.9825 58.3167L88.2488 60.1464L89.2383 63.1852L86.5676 61.276L83.8339 63.1057L84.9124 60.0973L82.2418 58.1881L85.5781 58.2372L86.6566 55.2288ZM86.5918 33.8272L87.5732 36.8659L90.9176 36.9151L88.1839 38.7448L89.1734 41.7837L86.5028 39.8744L83.7691 41.7041L84.8476 38.6958L82.1769 36.7865L85.5133 36.8356L86.5918 33.8272ZM73.9382 16.2727L74.9277 19.3115L78.264 19.3606L75.5384 21.1905L76.5279 24.2293L73.8492 22.3199L71.1235 24.1498L72.202 21.1414L69.5233 19.232L72.8677 19.2812L73.9382 16.2727Z" fill="#BB9CFF"/>
<path d="M52.0302 79.6209L53.0197 82.6598L56.374 81.4933L56.3561 82.7089L53.6304 84.5387L54.6378 86.3619L54.62 87.5775L51.9412 85.6681L49.2156 87.498L49.2335 86.2824L50.2941 84.4896L47.6154 82.5802L47.6332 81.3646L50.9598 82.6295L52.0302 79.6209Z" fill="#6637ED"/>
<path d="M52.054 78.0057L53.0435 81.0445L56.3799 81.0936L53.6542 82.9235L54.6438 85.9623L51.965 84.0529L49.2394 85.8828L50.3179 82.8744L47.6392 80.965L50.9836 81.0142L52.054 78.0057Z" fill="#BB9CFF"/>
<path d="M53.0447 10.6786L54.0342 13.7174L57.3884 12.5509L57.3705 13.7665L54.6449 15.5963L55.6523 17.4195L55.6344 18.6351L52.9557 16.7258L50.23 18.5556L50.2479 17.34L51.3085 15.5472L48.6298 13.6379L48.6477 12.4223L51.9742 13.6871L53.0447 10.6786Z" fill="#6637ED"/>
<path d="M53.0625 9.46317L54.0521 12.502L57.3884 12.5511L54.6628 14.3809L55.6523 17.4197L52.9736 15.5104L50.2479 17.3402L51.3264 14.3318L48.6477 12.4225L51.9921 12.4717L53.0625 9.46317ZM31.5874 71.4021L30.517 74.4106L27.1726 74.3614L29.8513 76.2708L28.7728 79.2792L31.4984 77.4493L34.1772 79.3587L33.1876 76.3199L35.9133 74.49L32.5769 74.4409L31.5874 71.4021ZM18.0557 54.2195L16.9852 57.228L13.6408 57.1788L16.3195 59.0882L15.241 62.0965L17.9667 60.2667L20.6454 62.1761L19.6559 59.1373L22.3816 57.3074L19.0452 57.2583L18.0557 54.2195ZM18.7502 32.8291L17.6798 35.8376L14.3353 35.7884L17.0141 37.6978L15.9355 40.7061L18.6612 38.8763L21.3399 40.7857L20.3504 37.7468L23.0761 35.917L19.7397 35.8679L18.7502 32.8291ZM31.9148 15.6545L30.8363 18.6629L27.5 18.6138L30.1706 20.5231L29.0921 23.5314L31.8258 21.7017L34.4965 23.611L33.507 20.5722L36.2407 18.7424L32.8963 18.6932L31.9148 15.6545Z" fill="#BB9CFF"/>
<path d="M71.907 35.1501L52.8015 24.4572L33.3897 34.5833L71.907 35.1501Z" fill="#844CFE"/>
<g filter="url(#filter0_d_3604_821)">
<path d="M35.4426 32.5576L30.9604 34.9668L30.6284 57.5326L42.8429 63.9591L54.4035 57.8825L54.5292 49.3393L50.2768 49.2767L50.1927 54.9918L42.9209 58.6564L35.1158 54.77L35.4426 32.5576Z" fill="url(#paint0_linear_3604_821)"/>
<path d="M35.4426 32.5576L30.9604 34.9668L30.6284 57.5326L42.8429 63.9591L54.4035 57.8825L54.5292 49.3393L50.2768 49.2767L50.1927 54.9918L42.9209 58.6564L35.1158 54.77L35.4426 32.5576Z" stroke="white"/>
<path d="M69.5007 61.1123L73.9829 58.7031L74.3149 36.1373L62.1005 29.7108L50.5398 35.7874L50.4141 44.3307L54.6666 44.3932L54.7507 38.6781L62.0224 35.0135L69.8276 38.9L69.5007 61.1123Z" fill="url(#paint1_linear_3604_821)"/>
<path d="M69.5007 61.1123L73.9829 58.7031L74.3149 36.1373L62.1005 29.7108L50.5398 35.7874L50.4141 44.3307L54.6666 44.3932L54.7507 38.6781L62.0224 35.0135L69.8276 38.9L69.5007 61.1123Z" stroke="white"/>
<path d="M57.7039 26.4044L53.4895 23.7494L40.8867 30.5768L40.5555 53.0837L45.231 50.6774L45.4919 32.9429L57.7039 26.4044Z" fill="url(#paint2_linear_3604_821)"/>
<path d="M57.7039 26.4044L53.4895 23.7494L40.8867 30.5768L40.5555 53.0837L45.231 50.6774L45.4919 32.9429L57.7039 26.4044Z" stroke="white"/>
<path d="M47.4979 67.0361L51.7122 69.6911L64.3151 62.8637L64.6463 40.3567L59.9708 42.763L59.7098 60.4976L47.4979 67.0361Z" fill="url(#paint3_linear_3604_821)"/>
<path d="M47.4979 67.0361L51.7122 69.6911L64.3151 62.8637L64.6463 40.3567L59.9708 42.763L59.7098 60.4976L47.4979 67.0361Z" stroke="white"/>
</g>
<defs>
<filter id="filter0_d_3604_821" x="30.3284" y="23.649" width="44.2866" height="46.5424" filterUnits="userSpaceOnUse" color-interpolation-filters="sRGB">
<feFlood flood-opacity="0" result="BackgroundImageFix"/>
<feColorMatrix in="SourceAlpha" type="matrix" values="0 0 0 0 0 0 0 0 0 0 0 0 0 0 0 0 0 0 127 0" result="hardAlpha"/>
<feOffset dy="0.2"/>
<feGaussianBlur stdDeviation="0.15"/>
<feComposite in2="hardAlpha" operator="out"/>
<feColorMatrix type="matrix" values="0 0 0 0 0 0 0 0 0 0 0 0 0 0 0 0 0 0 0.25 0"/>
<feBlend mode="normal" in2="BackgroundImageFix" result="effect1_dropShadow_3604_821"/>
<feBlend mode="normal" in="SourceGraphic" in2="effect1_dropShadow_3604_821" result="shape"/>
</filter>
<linearGradient id="paint0_linear_3604_821" x1="42.4241" y1="63.953" x2="42.8844" y2="32.6671" gradientUnits="userSpaceOnUse">
<stop stop-color="#9B6DFF"/>
<stop offset="0.0001" stop-color="#BD9FFF"/>
</linearGradient>
<linearGradient id="paint1_linear_3604_821" x1="62.5193" y1="29.717" x2="62.0589" y2="61.0028" gradientUnits="userSpaceOnUse">
<stop stop-color="#9B6DFF"/>
<stop offset="0.0001" stop-color="#BD9FFF"/>
</linearGradient>
<linearGradient id="paint2_linear_3604_821" x1="48.9316" y1="53.207" x2="49.3659" y2="23.6887" gradientUnits="userSpaceOnUse">
<stop stop-color="#9B6DFF"/>
<stop offset="0.0001" stop-color="#BD9FFF"/>
</linearGradient>
<linearGradient id="paint3_linear_3604_821" x1="56.2702" y1="40.2334" x2="55.8358" y2="69.7518" gradientUnits="userSpaceOnUse">
<stop stop-color="#9B6DFF"/>
<stop offset="0.0001" stop-color="#BD9FFF"/>
</linearGradient>
</defs>
</svg>
