<svg width="138" height="135" viewBox="0 0 138 135" fill="none" xmlns="http://www.w3.org/2000/svg">
<path d="M68.0128 129.276C101.648 129.771 129.305 103.593 129.787 70.8055C130.27 38.0182 103.395 11.0375 69.7599 10.5426C36.1252 10.0477 8.46775 36.2259 7.9853 69.0133C7.50285 101.801 34.3781 128.781 68.0128 129.276Z" fill="#5B30D6"/>
<path d="M11.8991 84.4957L11.8099 90.5607C12.4233 92.1743 13.1114 93.7683 13.8639 95.3115L14.0226 84.5269L11.8991 84.4957ZM18.6749 96.0137L18.5677 103.3C19.3999 104.482 20.2642 105.644 21.1716 106.765L21.3292 96.0528L18.6749 96.0137ZM27.7294 105.671L27.6138 113.526C28.6305 114.442 29.6796 115.317 30.761 116.161L30.9146 105.718L27.7294 105.671ZM38.9411 113.072L38.8168 121.517C39.8491 122.092 40.903 122.635 41.9785 123.158L42.1263 113.119L38.9411 113.072ZM51.7097 117.867L51.5781 126.809C52.6249 127.114 53.6829 127.388 54.7517 127.642L54.8949 117.913L51.7097 117.867ZM66.7097 119.681L66.5695 129.214C67.0471 129.231 67.5246 129.259 68.013 129.266C68.5969 129.275 69.1813 129.252 69.7548 129.25L69.8949 119.728L66.7097 119.681ZM81.7578 118.236L81.6146 127.965C82.6905 127.743 83.7562 127.489 84.8116 127.215L84.943 118.283L81.7578 118.236ZM94.631 113.757L94.4831 123.807C95.5735 123.315 96.6434 122.782 97.6922 122.229L97.8162 113.804L94.631 113.757ZM106.025 106.626L105.871 117.08C106.976 116.263 108.051 115.409 109.094 114.518L109.21 106.673L106.025 106.626ZM118.492 97.2547L115.838 97.2157L115.68 107.928C116.62 106.824 117.529 105.688 118.385 104.52L118.492 97.2547ZM125.562 85.899L123.438 85.8677L123.279 96.673C124.077 95.1216 124.812 93.5278 125.473 91.9123L125.562 85.899Z" fill="#3A05D2"/>
<path d="M68.0914 123.935C101.726 124.43 129.384 98.2521 129.866 65.4647C130.348 32.6773 103.473 5.69671 69.8385 5.20179C36.2038 4.70687 8.54633 30.8851 8.06388 63.6725C7.58143 96.4598 34.4567 123.44 68.0914 123.935Z" fill="#BB9CFF"/>
<path d="M68.1692 118.647C98.8076 119.098 124.001 95.2519 124.441 65.3854C124.88 35.519 100.399 10.9419 69.7607 10.4911C39.1224 10.0403 13.9288 33.8864 13.4893 63.7528C13.0499 93.6193 37.5309 118.196 68.1692 118.647Z" fill="#844CFE"/>
<path d="M13.3527 65.8209C13.0646 58.6944 14.4344 51.4888 17.0822 44.7575C19.8358 38.0484 23.9941 31.8673 29.2002 26.6436C39.6553 16.1762 54.6951 10.238 69.7622 10.3873C84.827 10.6917 99.6964 17.0597 109.818 27.8402C114.879 33.2046 118.842 39.5156 121.398 46.2924C123.857 53.1092 125.014 60.3417 124.506 67.4564L124.293 67.4533C124.377 60.3495 123.038 53.297 120.351 46.6911C117.659 40.0926 113.676 34.0671 108.622 28.951C103.566 23.8399 97.528 19.748 90.8524 16.9088C84.1789 14.0775 76.9965 12.5645 69.7211 12.4575C62.4457 12.3504 55.2219 13.6514 48.468 16.2852C41.7117 18.9267 35.5559 22.8391 30.3514 27.7993C25.1466 32.7617 20.9869 38.668 18.106 45.1866C15.2259 51.7106 13.6798 58.7207 13.5544 65.8239L13.3527 65.8209Z" fill="#6400E4"/>
<path d="M69.8384 5.21254C36.2026 4.7176 8.54619 30.8948 8.06373 63.6832C7.58126 96.4716 34.4555 123.451 68.0913 123.946C101.727 124.441 129.383 98.2638 129.866 65.4755C130.348 32.6871 103.474 5.70747 69.8384 5.21254ZM68.1691 118.657C37.5274 118.206 13.0497 93.6327 13.4892 63.763C13.9289 33.883 39.119 10.0401 69.7607 10.491C100.402 10.9418 124.88 35.5156 124.441 65.3853C124.001 95.255 98.8107 119.108 68.1691 118.657Z" fill="#BB9CFF"/>
<path d="M41.9595 22.6901L43.248 26.7775L47.6677 25.2069L47.6436 26.8422L44.0498 29.3048L45.3732 31.7467L45.349 33.3923L41.8398 30.8251L38.246 33.2878L38.2702 31.6422L39.6648 29.2403L36.1557 26.6731L36.1797 25.0378L40.5406 26.7376L41.9595 22.6901ZM24.6494 45.7898L25.9486 49.8773L30.3576 48.3065L30.3335 49.9418L26.7503 52.4046L28.0736 54.8568L28.0495 56.4921L24.5297 53.9248L20.9465 56.3876L20.9706 54.7523L22.3654 52.3401L18.8456 49.7728L18.8696 48.1375L23.2411 49.8374L24.6494 45.7898ZM23.7269 74.5654L25.026 78.6529L29.4351 77.0821L29.411 78.7174L25.8278 81.1803L27.151 83.6325L27.127 85.2678L23.6072 82.7004L20.024 85.1632L20.048 83.528L21.4428 81.1157L17.923 78.5484L17.9471 76.9131L22.3186 78.6131L23.7269 74.5654ZM41.5038 97.6844L42.803 101.772L47.212 100.201L47.1879 101.836L43.6047 104.299L44.9281 106.741L44.9039 108.387L41.3841 105.819L37.8009 108.282L37.8251 106.637L39.2198 104.235L35.6999 101.667L35.724 100.032L40.0955 101.732L41.5038 97.6844ZM97.1909 23.5029L95.7827 27.5505L91.4111 25.8506L91.3871 27.4858L94.9069 30.0532L93.5122 32.455L93.488 34.1007L97.0712 31.6378L100.591 34.2052L100.615 32.5596L99.2918 30.1177L102.875 27.6549L102.899 26.0196L98.4901 27.5903L97.1909 23.5029ZM113.814 47.1018L112.395 51.1493L108.034 49.4495L108.01 51.0848L111.519 53.652L110.124 56.0642L110.1 57.6995L113.694 55.2368L117.203 57.804L117.227 56.1687L115.904 53.7165L119.498 51.2538L119.522 49.6185L115.102 51.1891L113.814 47.1018ZM113.889 75.8921L112.47 79.9396L108.11 78.2398L108.086 79.8751L111.595 82.4423L110.2 84.8545L110.176 86.4898L113.77 84.0271L117.279 86.5943L117.303 84.959L115.98 82.5068L119.573 80.0441L119.598 78.4088L115.178 79.9794L113.889 75.8921ZM95.4399 98.4781L94.021 102.526L89.6601 100.826L89.636 102.461L93.1452 105.028L91.7506 107.43L91.7264 109.076L95.3202 106.613L98.8294 109.18L98.8536 107.535L97.5302 105.093L101.124 102.63L101.148 100.995L96.7284 102.565L95.4399 98.4781Z" fill="#6637ED"/>
<path d="M95.4641 96.8329L96.7527 100.92L101.148 100.985L97.5544 103.448L98.8536 107.535L95.3444 104.968L91.7506 107.431L93.1695 103.383L89.6603 100.816L94.0452 100.88L95.4641 96.8329ZM113.913 74.2573L115.202 78.3447L119.598 78.4093L116.004 80.872L117.303 84.9595L113.794 82.3923L110.2 84.855L111.619 80.8075L108.11 78.2403L112.495 78.3048L113.913 74.2573ZM113.838 45.467L115.126 49.5543L119.522 49.619L115.928 52.0817L117.227 56.1692L113.718 53.602L110.124 56.0647L111.543 52.0172L108.034 49.45L112.419 49.5145L113.838 45.467ZM97.2151 21.8577L98.5143 25.9452L102.899 26.0097L99.3161 28.4726L100.615 32.5601L97.0954 29.9927L93.5122 32.4555L94.9311 28.4081L91.4113 25.8407L95.8069 25.9054L97.2151 21.8577Z" fill="#BB9CFF"/>
<path d="M68.3924 107.086L69.6916 111.174L74.1006 109.603L74.0766 111.238L70.4934 113.701L71.8166 116.154L71.7925 117.789L68.2727 115.221L64.6895 117.684L64.7136 116.049L66.1084 113.637L62.5886 111.069L62.6127 109.434L66.9842 111.134L68.3924 107.086Z" fill="#6637ED"/>
<path d="M68.4244 104.914L69.7236 109.001L74.1085 109.066L70.5254 111.528L71.8245 115.616L68.3047 113.049L64.7215 115.511L66.1404 111.464L62.6206 108.897L67.0162 108.961L68.4244 104.914Z" fill="#BB9CFF"/>
<path d="M69.7571 14.3414L71.0563 18.4288L75.4653 16.8581L75.4413 18.4934L71.8581 20.9562L73.1813 23.4084L73.1572 25.0437L69.6374 22.4763L66.0542 24.9392L66.0783 23.3039L67.4731 20.8917L63.9533 18.3243L63.9774 16.6891L68.3489 18.389L69.7571 14.3414Z" fill="#6637ED"/>
<path d="M69.7812 12.7067L71.0804 16.7941L75.4653 16.8587L71.8821 19.3215L73.1813 23.409L69.6615 20.8416L66.0783 23.3045L67.4972 19.257L63.9774 16.6896L68.3729 16.7543L69.7812 12.7067ZM41.528 96.0394L40.1197 100.087L35.7242 100.022L39.244 102.59L37.8251 106.637L41.4083 104.174L44.9281 106.742L43.6289 102.654L47.2121 100.191L42.8272 100.127L41.528 96.0394ZM23.7509 72.9308L22.3427 76.9784L17.9471 76.9137L21.4669 79.4811L20.048 83.5286L23.6312 81.0658L27.151 83.6331L25.8519 79.5456L29.4351 77.0828L25.0501 77.0183L23.7509 72.9308ZM24.6735 44.1551L23.2652 48.2028L18.8696 48.1381L22.3894 50.7055L20.9706 54.753L24.5538 52.2901L28.0736 54.8575L26.7744 50.77L30.3576 48.3071L25.9726 48.2426L24.6735 44.1551ZM41.9837 21.0452L40.5648 25.0927L36.1799 25.0281L39.6891 27.5953L38.2702 31.6428L41.864 29.1801L45.3732 31.7473L44.074 27.6599L47.6678 25.1972L43.2723 25.1325L41.9837 21.0452Z" fill="#BB9CFF"/>
<path d="M94.537 47.2531L69.4313 32.8773L43.9135 46.5082L94.537 47.2531Z" fill="#844CFE"/>
<g filter="url(#filter0_d_3601_1203)">
<path d="M46.6126 43.7823L40.7205 47.0252L40.2738 77.382L56.3245 86.0216L71.5216 77.8418L71.6907 66.349L66.1017 66.2668L65.9885 73.955L56.4295 78.8881L46.1729 73.6635L46.6126 43.7823Z" fill="url(#paint0_linear_3601_1203)"/>
<path d="M46.6126 43.7823L40.7205 47.0252L40.2738 77.382L56.3245 86.0216L71.5216 77.8418L71.6907 66.349L66.1017 66.2668L65.9885 73.955L56.4295 78.8881L46.1729 73.6635L46.6126 43.7823Z" stroke="white"/>
<path d="M91.3625 82.1796L97.2546 78.9367L97.7012 48.5799L81.6506 39.9403L66.4535 48.1201L66.2844 59.6129L71.8734 59.6951L71.9866 52.0069L81.5456 47.0738L91.8022 52.2985L91.3625 82.1796Z" fill="url(#paint1_linear_3601_1203)"/>
<path d="M91.3625 82.1796L97.2546 78.9367L97.7012 48.5799L81.6506 39.9403L66.4535 48.1201L66.2844 59.6129L71.8734 59.6951L71.9866 52.0069L81.5456 47.0738L91.8022 52.2985L91.3625 82.1796Z" stroke="white"/>
<path d="M75.8736 35.4941L70.3359 31.9244L53.7688 41.1146L53.3232 71.3921L59.4693 68.1529L59.8204 44.2955L75.8736 35.4941Z" fill="url(#paint2_linear_3601_1203)"/>
<path d="M75.8736 35.4941L70.3359 31.9244L53.7688 41.1146L53.3232 71.3921L59.4693 68.1529L59.8204 44.2955L75.8736 35.4941Z" stroke="white"/>
<path d="M62.4413 90.1583L67.979 93.728L84.5462 84.5377L84.9917 54.2602L78.8456 57.4994L78.4945 81.3568L62.4413 90.1583Z" fill="url(#paint3_linear_3601_1203)"/>
<path d="M62.4413 90.1583L67.979 93.728L84.5462 84.5377L84.9917 54.2602L78.8456 57.4994L78.4945 81.3568L62.4413 90.1583Z" stroke="white"/>
</g>
<defs>
<filter id="filter0_d_3601_1203" x="39.9738" y="31.8248" width="58.0274" height="62.4027" filterUnits="userSpaceOnUse" color-interpolation-filters="sRGB">
<feFlood flood-opacity="0" result="BackgroundImageFix"/>
<feColorMatrix in="SourceAlpha" type="matrix" values="0 0 0 0 0 0 0 0 0 0 0 0 0 0 0 0 0 0 127 0" result="hardAlpha"/>
<feOffset dy="0.2"/>
<feGaussianBlur stdDeviation="0.15"/>
<feComposite in2="hardAlpha" operator="out"/>
<feColorMatrix type="matrix" values="0 0 0 0 0 0 0 0 0 0 0 0 0 0 0 0 0 0 0.25 0"/>
<feBlend mode="normal" in2="BackgroundImageFix" result="effect1_dropShadow_3601_1203"/>
<feBlend mode="normal" in="SourceGraphic" in2="effect1_dropShadow_3601_1203" result="shape"/>
</filter>
<linearGradient id="paint0_linear_3601_1203" x1="55.7741" y1="86.0135" x2="56.3934" y2="43.9262" gradientUnits="userSpaceOnUse">
<stop stop-color="#9B6DFF"/>
<stop offset="0.0001" stop-color="#BD9FFF"/>
</linearGradient>
<linearGradient id="paint1_linear_3601_1203" x1="82.201" y1="39.9484" x2="81.5817" y2="82.0357" gradientUnits="userSpaceOnUse">
<stop stop-color="#9B6DFF"/>
<stop offset="0.0001" stop-color="#BD9FFF"/>
</linearGradient>
<linearGradient id="paint2_linear_3601_1203" x1="64.3319" y1="71.5541" x2="64.9162" y2="31.8446" gradientUnits="userSpaceOnUse">
<stop stop-color="#9B6DFF"/>
<stop offset="0.0001" stop-color="#BD9FFF"/>
</linearGradient>
<linearGradient id="paint3_linear_3601_1203" x1="73.983" y1="54.0982" x2="73.3987" y2="93.8077" gradientUnits="userSpaceOnUse">
<stop stop-color="#9B6DFF"/>
<stop offset="0.0001" stop-color="#BD9FFF"/>
</linearGradient>
</defs>
</svg>
